<mxfile host="app.diagrams.net" agent="Mozilla/5.0 (Macintosh; Intel Mac OS X 10_15_7) AppleWebKit/537.36 (KHTML, like Gecko) Chrome/138.0.0.0 Safari/537.36" version="28.1.0">
  <diagram name="第 1 页" id="SuMi7iQFlFX31R_0_CBO">
    <mxGraphModel dx="2107" dy="820" grid="1" gridSize="10" guides="1" tooltips="1" connect="1" arrows="1" fold="1" page="1" pageScale="1" pageWidth="827" pageHeight="1169" math="0" shadow="0">
      <root>
        <mxCell id="0" />
        <mxCell id="1" parent="0" />
        <mxCell id="7QFVc1M22S6kc5yngTEV-83" value="开始" style="shape=parallelogram;perimeter=parallelogramPerimeter;fixedSize=1;strokeWidth=2;whiteSpace=wrap;" vertex="1" parent="1">
          <mxGeometry x="161" y="20" width="86" height="39" as="geometry" />
        </mxCell>
        <mxCell id="7QFVc1M22S6kc5yngTEV-103" value="" style="edgeStyle=orthogonalEdgeStyle;rounded=0;orthogonalLoop=1;jettySize=auto;html=1;exitX=0.5;exitY=1;exitDx=0;exitDy=0;" edge="1" parent="1" source="7QFVc1M22S6kc5yngTEV-84" target="7QFVc1M22S6kc5yngTEV-85">
          <mxGeometry relative="1" as="geometry" />
        </mxCell>
        <mxCell id="7QFVc1M22S6kc5yngTEV-84" value="线索输入" style="whiteSpace=wrap;strokeWidth=2;" vertex="1" parent="1">
          <mxGeometry x="142" y="109" width="124" height="54" as="geometry" />
        </mxCell>
        <mxCell id="7QFVc1M22S6kc5yngTEV-107" style="edgeStyle=orthogonalEdgeStyle;rounded=0;orthogonalLoop=1;jettySize=auto;html=1;exitX=1;exitY=0.5;exitDx=0;exitDy=0;entryX=1;entryY=0.5;entryDx=0;entryDy=0;" edge="1" parent="1" source="7QFVc1M22S6kc5yngTEV-85" target="7QFVc1M22S6kc5yngTEV-84">
          <mxGeometry relative="1" as="geometry">
            <mxPoint x="360" y="140" as="targetPoint" />
            <Array as="points">
              <mxPoint x="350" y="284" />
              <mxPoint x="350" y="136" />
            </Array>
          </mxGeometry>
        </mxCell>
        <mxCell id="7QFVc1M22S6kc5yngTEV-108" value="&lt;span style=&quot;color: rgb(0, 0, 0); background-color: rgb(255, 255, 255); float: none; display: inline !important;&quot;&gt;通过威胁情报关联，&lt;/span&gt;&lt;br style=&quot;color: rgb(0, 0, 0); padding: 0px; margin: 0px;&quot;&gt;&lt;span style=&quot;color: rgb(0, 0, 0); background-color: rgb(255, 255, 255); float: none; display: inline !important;&quot;&gt;扩展攻击IP作为线索输入&lt;/span&gt;" style="edgeLabel;html=1;align=center;verticalAlign=middle;resizable=0;points=[];" vertex="1" connectable="0" parent="7QFVc1M22S6kc5yngTEV-107">
          <mxGeometry x="0.0101" y="-1" relative="1" as="geometry">
            <mxPoint as="offset" />
          </mxGeometry>
        </mxCell>
        <mxCell id="7QFVc1M22S6kc5yngTEV-85" value="威胁情报查询与主体定位查询" style="whiteSpace=wrap;strokeWidth=2;" vertex="1" parent="1">
          <mxGeometry x="111" y="260" width="186" height="48" as="geometry" />
        </mxCell>
        <mxCell id="7QFVc1M22S6kc5yngTEV-99" value="" style="edgeStyle=orthogonalEdgeStyle;rounded=0;orthogonalLoop=1;jettySize=auto;html=1;" edge="1" parent="1" source="7QFVc1M22S6kc5yngTEV-86" target="7QFVc1M22S6kc5yngTEV-87">
          <mxGeometry relative="1" as="geometry" />
        </mxCell>
        <mxCell id="7QFVc1M22S6kc5yngTEV-86" value="日志拉取" style="whiteSpace=wrap;strokeWidth=2;" vertex="1" parent="1">
          <mxGeometry x="142" y="390" width="124" height="54" as="geometry" />
        </mxCell>
        <mxCell id="7QFVc1M22S6kc5yngTEV-102" value="&lt;meta charset=&quot;utf-8&quot;&gt;&lt;span style=&quot;color: rgb(0, 0, 0); font-family: Helvetica; font-size: 11px; font-style: normal; font-variant-ligatures: normal; font-variant-caps: normal; font-weight: 400; letter-spacing: normal; orphans: 2; text-align: center; text-indent: 0px; text-transform: none; widows: 2; word-spacing: 0px; -webkit-text-stroke-width: 0px; white-space: nowrap; background-color: rgb(255, 255, 255); text-decoration-thickness: initial; text-decoration-style: initial; text-decoration-color: initial; display: inline !important; float: none;&quot;&gt;通过分析日志，&lt;/span&gt;&lt;br style=&quot;forced-color-adjust: none; padding: 0px; margin: 0px; color: rgb(0, 0, 0); font-family: Helvetica; font-size: 11px; font-style: normal; font-variant-ligatures: normal; font-variant-caps: normal; font-weight: 400; letter-spacing: normal; orphans: 2; text-align: center; text-indent: 0px; text-transform: none; widows: 2; word-spacing: 0px; -webkit-text-stroke-width: 0px; white-space: nowrap; text-decoration-thickness: initial; text-decoration-style: initial; text-decoration-color: initial;&quot;&gt;&lt;span style=&quot;color: rgb(0, 0, 0); font-family: Helvetica; font-size: 11px; font-style: normal; font-variant-ligatures: normal; font-variant-caps: normal; font-weight: 400; letter-spacing: normal; orphans: 2; text-align: center; text-indent: 0px; text-transform: none; widows: 2; word-spacing: 0px; -webkit-text-stroke-width: 0px; white-space: nowrap; background-color: rgb(255, 255, 255); text-decoration-thickness: initial; text-decoration-style: initial; text-decoration-color: initial; display: inline !important; float: none;&quot;&gt;扩展可疑IP作为线索输入&lt;/span&gt;" style="edgeStyle=orthogonalEdgeStyle;rounded=0;orthogonalLoop=1;jettySize=auto;html=1;entryX=0;entryY=0.5;entryDx=0;entryDy=0;exitX=0;exitY=0.5;exitDx=0;exitDy=0;" edge="1" parent="1" source="7QFVc1M22S6kc5yngTEV-87" target="7QFVc1M22S6kc5yngTEV-84">
          <mxGeometry relative="1" as="geometry">
            <mxPoint x="155.9966666666666" y="584" as="sourcePoint" />
            <mxPoint x="79.93" y="162" as="targetPoint" />
            <Array as="points">
              <mxPoint x="50" y="547" />
              <mxPoint x="50" y="136" />
            </Array>
          </mxGeometry>
        </mxCell>
        <mxCell id="7QFVc1M22S6kc5yngTEV-105" value="" style="edgeStyle=orthogonalEdgeStyle;rounded=0;orthogonalLoop=1;jettySize=auto;html=1;" edge="1" parent="1" source="7QFVc1M22S6kc5yngTEV-87" target="7QFVc1M22S6kc5yngTEV-88">
          <mxGeometry relative="1" as="geometry" />
        </mxCell>
        <mxCell id="7QFVc1M22S6kc5yngTEV-87" value="日志分析" style="whiteSpace=wrap;strokeWidth=2;" vertex="1" parent="1">
          <mxGeometry x="142" y="520" width="124" height="54" as="geometry" />
        </mxCell>
        <mxCell id="7QFVc1M22S6kc5yngTEV-106" style="edgeStyle=orthogonalEdgeStyle;rounded=0;orthogonalLoop=1;jettySize=auto;html=1;entryX=1;entryY=0.5;entryDx=0;entryDy=0;exitX=1;exitY=0.5;exitDx=0;exitDy=0;" edge="1" parent="1" source="7QFVc1M22S6kc5yngTEV-88" target="7QFVc1M22S6kc5yngTEV-87">
          <mxGeometry relative="1" as="geometry">
            <mxPoint x="324.5000000000002" y="705" as="sourcePoint" />
            <mxPoint x="288.4999999999998" y="547" as="targetPoint" />
            <Array as="points">
              <mxPoint x="353" y="705" />
              <mxPoint x="353" y="547" />
            </Array>
          </mxGeometry>
        </mxCell>
        <mxCell id="7QFVc1M22S6kc5yngTEV-88" value="结束判断" style="rhombus;strokeWidth=2;whiteSpace=wrap;" vertex="1" parent="1">
          <mxGeometry x="106" y="660" width="196" height="90" as="geometry" />
        </mxCell>
        <mxCell id="7QFVc1M22S6kc5yngTEV-89" value="结束" style="shape=parallelogram;perimeter=parallelogramPerimeter;fixedSize=1;strokeWidth=2;whiteSpace=wrap;" vertex="1" parent="1">
          <mxGeometry x="125.5" y="790" width="157" height="80" as="geometry" />
        </mxCell>
        <mxCell id="7QFVc1M22S6kc5yngTEV-90" value="" style="curved=1;startArrow=none;endArrow=block;exitX=0.5;exitY=1;entryX=0.5;entryY=0;rounded=0;" edge="1" parent="1" source="7QFVc1M22S6kc5yngTEV-83" target="7QFVc1M22S6kc5yngTEV-84">
          <mxGeometry relative="1" as="geometry">
            <Array as="points" />
          </mxGeometry>
        </mxCell>
        <mxCell id="7QFVc1M22S6kc5yngTEV-92" value="" style="curved=1;startArrow=none;endArrow=block;exitX=0.5;exitY=1;entryX=0.5;entryY=0;rounded=0;" edge="1" parent="1" source="7QFVc1M22S6kc5yngTEV-85" target="7QFVc1M22S6kc5yngTEV-86">
          <mxGeometry relative="1" as="geometry">
            <Array as="points" />
          </mxGeometry>
        </mxCell>
        <mxCell id="7QFVc1M22S6kc5yngTEV-95" value="缺少数据/证据支持继续溯源" style="curved=1;startArrow=none;endArrow=block;exitX=0.5;exitY=1;rounded=0;" edge="1" parent="1" source="7QFVc1M22S6kc5yngTEV-88">
          <mxGeometry relative="1" as="geometry">
            <Array as="points" />
            <mxPoint x="204" y="790" as="targetPoint" />
          </mxGeometry>
        </mxCell>
      </root>
    </mxGraphModel>
  </diagram>
</mxfile>
